<svg xmlns="http://www.w3.org/2000/svg" viewBox="0 0 1200 1200" fill="none">
  <defs>
    <linearGradient id="bg" x1="150" y1="150" x2="1070" y2="1050" gradientUnits="userSpaceOnUse">
      <stop stop-color="#D8D0C3"/>
      <stop offset="1" stop-color="#8F8578"/>
    </linearGradient>
    <pattern id="mosaic" width="180" height="180" patternUnits="userSpaceOnUse">
      <rect width="180" height="180" fill="none"/>
      <rect x="16" y="16" width="68" height="68" rx="14" fill="#F8F3EA"/>
      <rect x="96" y="16" width="68" height="68" rx="14" fill="#C9BFB2"/>
      <rect x="16" y="96" width="68" height="68" rx="14" fill="#C9BFB2"/>
      <rect x="96" y="96" width="68" height="68" rx="14" fill="#F8F3EA"/>
      <path d="M16 16L84 84M96 16L164 84M16 96L84 164M96 96L164 164" stroke="#6C635A" stroke-opacity=".18" stroke-width="4"/>
    </pattern>
  </defs>
  <rect width="1200" height="1200" rx="92" fill="url(#bg)"/>
  <rect x="98" y="98" width="1004" height="1004" rx="56" fill="url(#mosaic)" opacity=".96"/>
  <rect x="160" y="160" width="880" height="880" rx="44" stroke="#FFF7EF" stroke-opacity=".45" stroke-width="16"/>
  <path d="M210 300C340 220 490 210 600 300C710 390 840 395 990 280" stroke="#F8F3EA" stroke-width="42" stroke-linecap="round" opacity=".48"/>
  <path d="M180 850C340 740 460 760 600 850C740 940 860 950 1040 810" stroke="#FFF7EF" stroke-width="22" stroke-linecap="round" opacity=".38"/>
</svg>
