<svg xmlns="http://www.w3.org/2000/svg" viewBox="0 0 1200 1200" fill="none">
  <defs>
    <linearGradient id="bg" x1="140" y1="130" x2="1060" y2="1040" gradientUnits="userSpaceOnUse">
      <stop stop-color="#F8F7F4"/>
      <stop offset="1" stop-color="#D0CCC4"/>
    </linearGradient>
    <pattern id="vein" width="220" height="220" patternUnits="userSpaceOnUse">
      <path d="M10 45C50 15 80 15 110 40C140 65 170 66 210 20" stroke="#1F2937" stroke-opacity=".18" stroke-width="7" stroke-linecap="round"/>
      <path d="M20 150C55 120 95 120 125 145C155 170 178 170 205 130" stroke="#111827" stroke-opacity=".12" stroke-width="5" stroke-linecap="round"/>
      <path d="M0 210C50 180 86 184 116 206C150 230 178 232 220 198" stroke="#111827" stroke-opacity=".10" stroke-width="4" stroke-linecap="round"/>
    </pattern>
    <radialGradient id="plaque" cx="0" cy="0" r="1" gradientUnits="userSpaceOnUse" gradientTransform="translate(430 370) rotate(90) scale(520)">
      <stop stop-color="#FFFFFF" stop-opacity=".9"/>
      <stop offset="1" stop-color="#FFFFFF" stop-opacity="0"/>
    </radialGradient>
  </defs>
  <rect width="1200" height="1200" rx="92" fill="url(#bg)"/>
  <rect x="84" y="84" width="1032" height="1032" rx="70" fill="url(#plaque)" opacity=".35"/>
  <rect x="108" y="108" width="984" height="984" rx="56" fill="url(#vein)" opacity=".92"/>
  <path d="M180 920C320 790 470 720 600 680C730 640 860 560 1020 360" stroke="#111827" stroke-width="42" stroke-linecap="round" opacity=".12"/>
  <path d="M220 300C340 240 470 250 600 320C730 390 850 400 980 330" stroke="#111827" stroke-width="18" stroke-linecap="round" opacity=".18"/>
</svg>
