<svg xmlns="http://www.w3.org/2000/svg" viewBox="0 0 1200 1200" fill="none">
  <defs>
    <linearGradient id="bg" x1="160" y1="100" x2="1080" y2="1080" gradientUnits="userSpaceOnUse">
      <stop stop-color="#4C1F15"/>
      <stop offset="1" stop-color="#D97724"/>
    </linearGradient>
    <pattern id="tiles" width="200" height="200" patternUnits="userSpaceOnUse">
      <rect x="0" y="0" width="200" height="200" fill="none"/>
      <path d="M100 20L180 100L100 180L20 100Z" stroke="#FFF3D0" stroke-width="12" opacity=".7"/>
      <circle cx="100" cy="100" r="22" fill="#FFF3D0" opacity=".85"/>
    </pattern>
    <radialGradient id="shine" cx="0" cy="0" r="1" gradientUnits="userSpaceOnUse" gradientTransform="translate(370 330) rotate(45) scale(620)">
      <stop stop-color="#FFEFC6" stop-opacity=".72"/>
      <stop offset="1" stop-color="#FFEFC6" stop-opacity="0"/>
    </radialGradient>
  </defs>
  <rect width="1200" height="1200" rx="92" fill="url(#bg)"/>
  <rect x="82" y="82" width="1036" height="1036" rx="70" fill="url(#shine)" opacity=".25"/>
  <rect x="110" y="110" width="980" height="980" rx="56" fill="url(#tiles)" opacity=".78"/>
  <path d="M210 900C330 780 420 700 540 650C680 592 790 520 980 320" stroke="#FFF6DC" stroke-width="54" stroke-linecap="round" opacity=".62"/>
  <path d="M260 980C380 875 510 760 640 690C775 615 885 520 1000 420" stroke="#FFF1BE" stroke-width="18" stroke-linecap="round" opacity=".42"/>
  <circle cx="890" cy="250" r="70" fill="#FFF6DC" opacity=".22"/>
</svg>
