<svg xmlns="http://www.w3.org/2000/svg" viewBox="0 0 800 800" fill="none">
  <defs>
    <linearGradient id="bg" x1="110" y1="110" x2="690" y2="690" gradientUnits="userSpaceOnUse">
      <stop stop-color="#FAFAFA"/>
      <stop offset="1" stop-color="#D4D4D4"/>
    </linearGradient>
  </defs>
  <rect width="800" height="800" rx="72" fill="url(#bg)"/>
  <path d="M120 190C236 140 354 140 474 198C586 252 640 246 680 220" stroke="#111827" stroke-width="16" stroke-linecap="round" opacity=".55"/>
  <path d="M110 340C238 282 350 274 456 322C570 376 632 378 690 346" stroke="#111827" stroke-width="22" stroke-linecap="round" opacity=".22"/>
  <path d="M116 540C214 478 308 452 412 462C524 472 602 442 684 396" stroke="#111827" stroke-width="18" stroke-linecap="round" opacity=".34"/>
  <path d="M146 668C246 606 324 578 414 588C504 598 588 574 652 528" stroke="#111827" stroke-width="14" stroke-linecap="round" opacity=".18"/>
</svg>
